<?xml version="1.0" encoding="UTF-8"?>
<svg id="Layer_1" xmlns="http://www.w3.org/2000/svg" version="1.1" viewBox="0 0 200 70">
  <!-- Generator: Adobe Illustrator 29.5.1, SVG Export Plug-In . SVG Version: 2.1.0 Build 141)  -->
  <defs>
    <style>
      .st0 {
        fill: #010101;
        fill-opacity: .2;
      }

      .st1 {
        fill: #1c1c1c;
      }

      .st2 {
        fill: #a7a6a6;
      }

      .st3 {
        fill: #fff;
      }
    </style>
  </defs>
  <path class="st1" d="M197.9,57c0,3-2.5,5.5-5.6,5.5H7.7c-3.1,0-5.6-2.5-5.6-5.5V13c0-3,2.5-5.5,5.6-5.5h184.5c3.1,0,5.6,2.5,5.6,5.5v44Z"/>
  <path class="st0" d="M197.9,57c0,3-2.5,5.5-5.6,5.5H7.7c-3.1,0-5.6-2.5-5.6-5.5V13c0-3,2.5-5.5,5.6-5.5h184.5c3.1,0,5.6,2.5,5.6,5.5v44Z"/>
  <path class="st0" d="M197.9,57c0,3-2.5,5.5-5.6,5.5H7.7c-3.1,0-5.6-2.5-5.6-5.5V13c0-3,2.5-5.5,5.6-5.5h184.5c3.1,0,5.6,2.5,5.6,5.5v44Z"/>
  <path class="st2" d="M191.7,7.5c3.4,0,6.2,2.7,6.2,6v42.9c0,3.3-2.8,6-6.2,6H8.3c-3.4,0-6.2-2.7-6.2-6V13.6c0-3.3,2.8-6,6.2-6h183.3ZM191.7,6.4H8.3c-4,0-7.3,3.2-7.3,7.1v42.9c0,3.9,3.3,7.1,7.3,7.1h183.3c4,0,7.3-3.2,7.3-7.1V13.6c0-3.9-3.3-7.1-7.3-7.1Z"/>
  <path class="st3" d="M45.2,34.7c0-4.6,3.9-6.9,4-7-2.2-3.2-5.7-3.6-6.9-3.6-2.9-.3-5.7,1.7-7.2,1.7s-3.8-1.7-6.2-1.6c-3.1,0-6.1,1.8-7.7,4.6-3.3,5.6-.8,13.9,2.3,18.4,1.6,2.2,3.5,4.7,5.9,4.6,2.4,0,3.3-1.5,6.1-1.5s3.7,1.5,6.2,1.4c2.6,0,4.2-2.2,5.7-4.5,1.8-2.5,2.6-5.1,2.6-5.2,0,0-5-1.8-5-7.4Z"/>
  <path class="st3" d="M45.2,34.7c0-4.6,3.9-6.9,4-7-2.2-3.2-5.7-3.6-6.9-3.6-2.9-.3-5.7,1.7-7.2,1.7s-3.8-1.7-6.2-1.6c-3.1,0-6.1,1.8-7.7,4.6-3.3,5.6-.8,13.9,2.3,18.4,1.6,2.2,3.5,4.7,5.9,4.6,2.4,0,3.3-1.5,6.1-1.5s3.7,1.5,6.2,1.4c2.6,0,4.2-2.2,5.7-4.5,1.8-2.5,2.6-5.1,2.6-5.2,0,0-5-1.8-5-7.4Z"/>
  <path class="st3" d="M45.2,34.7c0-4.6,3.9-6.9,4-7-2.2-3.2-5.7-3.6-6.9-3.6-2.9-.3-5.7,1.7-7.2,1.7s-3.8-1.7-6.2-1.6c-3.1,0-6.1,1.8-7.7,4.6-3.3,5.6-.8,13.9,2.3,18.4,1.6,2.2,3.5,4.7,5.9,4.6,2.4,0,3.3-1.5,6.1-1.5s3.7,1.5,6.2,1.4c2.6,0,4.2-2.2,5.7-4.5,1.8-2.5,2.6-5.1,2.6-5.2,0,0-5-1.8-5-7.4Z"/>
  <path class="st3" d="M40.5,21.1c1.3-1.6,2.2-3.7,1.9-5.8-1.9,0-4.2,1.3-5.5,2.8-1.2,1.3-2.2,3.6-2,5.6,2.1.2,4.2-1,5.6-2.6Z"/>
  <path class="st3" d="M40.5,21.1c1.3-1.6,2.2-3.7,1.9-5.8-1.9,0-4.2,1.3-5.5,2.8-1.2,1.3-2.2,3.6-2,5.6,2.1.2,4.2-1,5.6-2.6Z"/>
  <path class="st3" d="M40.5,21.1c1.3-1.6,2.2-3.7,1.9-5.8-1.9,0-4.2,1.3-5.5,2.8-1.2,1.3-2.2,3.6-2,5.6,2.1.2,4.2-1,5.6-2.6Z"/>
  <path class="st3" d="M79.7,51.5h-3.3l-1.8-5.6h-6.3l-1.7,5.6h-3.2l6.3-19h3.9l6.3,19ZM74,43.5l-1.7-5c-.2-.5-.5-1.7-1-3.6h0c-.2.8-.5,2-.9,3.6l-1.6,5h5.2Z"/>
  <path class="st3" d="M79.7,51.5h-3.3l-1.8-5.6h-6.3l-1.7,5.6h-3.2l6.3-19h3.9l6.3,19ZM74,43.5l-1.7-5c-.2-.5-.5-1.7-1-3.6h0c-.2.8-.5,2-.9,3.6l-1.6,5h5.2Z"/>
  <path class="st3" d="M79.7,51.5h-3.3l-1.8-5.6h-6.3l-1.7,5.6h-3.2l6.3-19h3.9l6.3,19ZM74,43.5l-1.7-5c-.2-.5-.5-1.7-1-3.6h0c-.2.8-.5,2-.9,3.6l-1.6,5h5.2Z"/>
  <path class="st3" d="M95.8,44.4c0,2.3-.6,4.2-1.9,5.5-1.2,1.2-2.6,1.8-4.3,1.8s-3.2-.6-4-1.9h0v7.2h-3.1v-14.8c0-1.5,0-3-.1-4.5h2.8l.2,2.2h0c1-1.6,2.6-2.5,4.7-2.5s3,.6,4.2,1.9c1.1,1.3,1.7,3,1.7,5.1ZM92.7,44.5c0-1.3-.3-2.4-.9-3.3-.7-.9-1.6-1.4-2.7-1.4s-1.5.3-2.1.7c-.6.5-1,1.2-1.2,2,0,.4-.1.7-.1.9v2.3c0,1,.3,1.8.9,2.5.6.7,1.4,1,2.4,1s2.1-.4,2.7-1.3c.7-.9,1-2.1,1-3.5Z"/>
  <path class="st3" d="M95.8,44.4c0,2.3-.6,4.2-1.9,5.5-1.2,1.2-2.6,1.8-4.3,1.8s-3.2-.6-4-1.9h0v7.2h-3.1v-14.8c0-1.5,0-3-.1-4.5h2.8l.2,2.2h0c1-1.6,2.6-2.5,4.7-2.5s3,.6,4.2,1.9c1.1,1.3,1.7,3,1.7,5.1ZM92.7,44.5c0-1.3-.3-2.4-.9-3.3-.7-.9-1.6-1.4-2.7-1.4s-1.5.3-2.1.7c-.6.5-1,1.2-1.2,2,0,.4-.1.7-.1.9v2.3c0,1,.3,1.8.9,2.5.6.7,1.4,1,2.4,1s2.1-.4,2.7-1.3c.7-.9,1-2.1,1-3.5Z"/>
  <path class="st3" d="M95.8,44.4c0,2.3-.6,4.2-1.9,5.5-1.2,1.2-2.6,1.8-4.3,1.8s-3.2-.6-4-1.9h0v7.2h-3.1v-14.8c0-1.5,0-3-.1-4.5h2.8l.2,2.2h0c1-1.6,2.6-2.5,4.7-2.5s3,.6,4.2,1.9c1.1,1.3,1.7,3,1.7,5.1ZM92.7,44.5c0-1.3-.3-2.4-.9-3.3-.7-.9-1.6-1.4-2.7-1.4s-1.5.3-2.1.7c-.6.5-1,1.2-1.2,2,0,.4-.1.7-.1.9v2.3c0,1,.3,1.8.9,2.5.6.7,1.4,1,2.4,1s2.1-.4,2.7-1.3c.7-.9,1-2.1,1-3.5Z"/>
  <path class="st3" d="M112,44.4c0,2.3-.6,4.2-1.9,5.5-1.2,1.2-2.6,1.8-4.3,1.8s-3.2-.6-4-1.9h0v7.2h-3.1v-14.8c0-1.5,0-3-.1-4.5h2.7l.2,2.2h0c1-1.6,2.6-2.5,4.7-2.5s3,.6,4.2,1.9c1.1,1.3,1.7,3,1.7,5.1ZM108.8,44.5c0-1.3-.3-2.4-.9-3.3-.7-.9-1.6-1.4-2.7-1.4s-1.5.3-2.1.7c-.6.5-1,1.2-1.2,2,0,.4-.1.7-.1.9v2.3c0,1,.3,1.8.9,2.5.6.7,1.4,1,2.4,1s2.1-.4,2.7-1.3c.7-.9,1-2.1,1-3.5Z"/>
  <path class="st3" d="M112,44.4c0,2.3-.6,4.2-1.9,5.5-1.2,1.2-2.6,1.8-4.3,1.8s-3.2-.6-4-1.9h0v7.2h-3.1v-14.8c0-1.5,0-3-.1-4.5h2.7l.2,2.2h0c1-1.6,2.6-2.5,4.7-2.5s3,.6,4.2,1.9c1.1,1.3,1.7,3,1.7,5.1ZM108.8,44.5c0-1.3-.3-2.4-.9-3.3-.7-.9-1.6-1.4-2.7-1.4s-1.5.3-2.1.7c-.6.5-1,1.2-1.2,2,0,.4-.1.7-.1.9v2.3c0,1,.3,1.8.9,2.5.6.7,1.4,1,2.4,1s2.1-.4,2.7-1.3c.7-.9,1-2.1,1-3.5Z"/>
  <path class="st3" d="M112,44.4c0,2.3-.6,4.2-1.9,5.5-1.2,1.2-2.6,1.8-4.3,1.8s-3.2-.6-4-1.9h0v7.2h-3.1v-14.8c0-1.5,0-3-.1-4.5h2.7l.2,2.2h0c1-1.6,2.6-2.5,4.7-2.5s3,.6,4.2,1.9c1.1,1.3,1.7,3,1.7,5.1ZM108.8,44.5c0-1.3-.3-2.4-.9-3.3-.7-.9-1.6-1.4-2.7-1.4s-1.5.3-2.1.7c-.6.5-1,1.2-1.2,2,0,.4-.1.7-.1.9v2.3c0,1,.3,1.8.9,2.5.6.7,1.4,1,2.4,1s2.1-.4,2.7-1.3c.7-.9,1-2.1,1-3.5Z"/>
  <path class="st3" d="M130.1,46.1c0,1.6-.6,2.9-1.7,4-1.3,1.1-3,1.7-5.3,1.7s-3.8-.4-5.1-1.2l.7-2.5c1.4.8,2.9,1.2,4.5,1.2s2.1-.3,2.8-.8c.7-.5,1-1.2,1-2.1s-.3-1.4-.8-2c-.5-.5-1.4-1-2.7-1.5-3.4-1.2-5.1-3.1-5.1-5.5s.6-2.8,1.8-3.8c1.2-1,2.8-1.5,4.8-1.5s3.3.3,4.4.9l-.8,2.5c-1.1-.6-2.3-.9-3.7-.9s-2,.3-2.6.8c-.5.5-.8,1-.8,1.7s.3,1.4.9,1.9c.5.5,1.5.9,2.8,1.5,1.7.7,2.9,1.4,3.7,2.3.8.9,1.2,2,1.2,3.3Z"/>
  <path class="st3" d="M130.1,46.1c0,1.6-.6,2.9-1.7,4-1.3,1.1-3,1.7-5.3,1.7s-3.8-.4-5.1-1.2l.7-2.5c1.4.8,2.9,1.2,4.5,1.2s2.1-.3,2.8-.8c.7-.5,1-1.2,1-2.1s-.3-1.4-.8-2c-.5-.5-1.4-1-2.7-1.5-3.4-1.2-5.1-3.1-5.1-5.5s.6-2.8,1.8-3.8c1.2-1,2.8-1.5,4.8-1.5s3.3.3,4.4.9l-.8,2.5c-1.1-.6-2.3-.9-3.7-.9s-2,.3-2.6.8c-.5.5-.8,1-.8,1.7s.3,1.4.9,1.9c.5.5,1.5.9,2.8,1.5,1.7.7,2.9,1.4,3.7,2.3.8.9,1.2,2,1.2,3.3Z"/>
  <path class="st3" d="M130.1,46.1c0,1.6-.6,2.9-1.7,4-1.3,1.1-3,1.7-5.3,1.7s-3.8-.4-5.1-1.2l.7-2.5c1.4.8,2.9,1.2,4.5,1.2s2.1-.3,2.8-.8c.7-.5,1-1.2,1-2.1s-.3-1.4-.8-2c-.5-.5-1.4-1-2.7-1.5-3.4-1.2-5.1-3.1-5.1-5.5s.6-2.8,1.8-3.8c1.2-1,2.8-1.5,4.8-1.5s3.3.3,4.4.9l-.8,2.5c-1.1-.6-2.3-.9-3.7-.9s-2,.3-2.6.8c-.5.5-.8,1-.8,1.7s.3,1.4.9,1.9c.5.5,1.5.9,2.8,1.5,1.7.7,2.9,1.4,3.7,2.3.8.9,1.2,2,1.2,3.3Z"/>
  <path class="st3" d="M140.5,40h-3.4v6.7c0,1.7.6,2.5,1.8,2.5s1,0,1.4-.1v2.3c-.5.2-1.3.3-2.3.3s-2.2-.4-2.9-1.1c-.7-.7-1-2-1-3.7v-6.9h-2.1v-2.3h2.1v-2.5l3.1-.9v3.4h3.4v2.3Z"/>
  <path class="st3" d="M140.5,40h-3.4v6.7c0,1.7.6,2.5,1.8,2.5s1,0,1.4-.1v2.3c-.5.2-1.3.3-2.3.3s-2.2-.4-2.9-1.1c-.7-.7-1-2-1-3.7v-6.9h-2.1v-2.3h2.1v-2.5l3.1-.9v3.4h3.4v2.3Z"/>
  <path class="st3" d="M140.5,40h-3.4v6.7c0,1.7.6,2.5,1.8,2.5s1,0,1.4-.1v2.3c-.5.2-1.3.3-2.3.3s-2.2-.4-2.9-1.1c-.7-.7-1-2-1-3.7v-6.9h-2.1v-2.3h2.1v-2.5l3.1-.9v3.4h3.4v2.3Z"/>
  <path class="st3" d="M156,44.5c0,2.1-.6,3.8-1.9,5.2-1.3,1.4-3,2.1-5.2,2.1s-3.7-.7-4.9-2c-1.2-1.3-1.8-3-1.8-5.1s.6-3.9,1.9-5.2c1.3-1.4,3-2,5.1-2s3.7.7,5,2c1.2,1.3,1.8,3,1.8,5ZM152.8,44.6c0-1.3-.3-2.4-.8-3.3-.7-1.1-1.6-1.6-2.8-1.6s-2.2.5-2.9,1.6c-.6.9-.8,2-.8,3.3s.3,2.4.8,3.3c.7,1.1,1.6,1.6,2.8,1.6s2.1-.6,2.8-1.7c.6-.9.9-2,.9-3.3Z"/>
  <path class="st3" d="M156,44.5c0,2.1-.6,3.8-1.9,5.2-1.3,1.4-3,2.1-5.2,2.1s-3.7-.7-4.9-2c-1.2-1.3-1.8-3-1.8-5.1s.6-3.9,1.9-5.2c1.3-1.4,3-2,5.1-2s3.7.7,5,2c1.2,1.3,1.8,3,1.8,5ZM152.8,44.6c0-1.3-.3-2.4-.8-3.3-.7-1.1-1.6-1.6-2.8-1.6s-2.2.5-2.9,1.6c-.6.9-.8,2-.8,3.3s.3,2.4.8,3.3c.7,1.1,1.6,1.6,2.8,1.6s2.1-.6,2.8-1.7c.6-.9.9-2,.9-3.3Z"/>
  <path class="st3" d="M156,44.5c0,2.1-.6,3.8-1.9,5.2-1.3,1.4-3,2.1-5.2,2.1s-3.7-.7-4.9-2c-1.2-1.3-1.8-3-1.8-5.1s.6-3.9,1.9-5.2c1.3-1.4,3-2,5.1-2s3.7.7,5,2c1.2,1.3,1.8,3,1.8,5ZM152.8,44.6c0-1.3-.3-2.4-.8-3.3-.7-1.1-1.6-1.6-2.8-1.6s-2.2.5-2.9,1.6c-.6.9-.8,2-.8,3.3s.3,2.4.8,3.3c.7,1.1,1.6,1.6,2.8,1.6s2.1-.6,2.8-1.7c.6-.9.9-2,.9-3.3Z"/>
  <path class="st3" d="M166.2,40.4c-.3,0-.6,0-1,0-1.1,0-2,.4-2.5,1.2-.5.7-.8,1.6-.8,2.7v7.2h-3.1v-9.4c0-1.6,0-3,0-4.3h2.7v2.6h.2c.3-.9.9-1.6,1.6-2.2.7-.5,1.4-.7,2.3-.7s.5,0,.8,0v2.9Z"/>
  <path class="st3" d="M166.2,40.4c-.3,0-.6,0-1,0-1.1,0-2,.4-2.5,1.2-.5.7-.8,1.6-.8,2.7v7.2h-3.1v-9.4c0-1.6,0-3,0-4.3h2.7v2.6h.2c.3-.9.9-1.6,1.6-2.2.7-.5,1.4-.7,2.3-.7s.5,0,.8,0v2.9Z"/>
  <path class="st3" d="M166.2,40.4c-.3,0-.6,0-1,0-1.1,0-2,.4-2.5,1.2-.5.7-.8,1.6-.8,2.7v7.2h-3.1v-9.4c0-1.6,0-3,0-4.3h2.7v2.6h.2c.3-.9.9-1.6,1.6-2.2.7-.5,1.4-.7,2.3-.7s.5,0,.8,0v2.9Z"/>
  <path class="st3" d="M180.2,43.9c0,.5,0,1-.1,1.4h-9.4c0,1.4.5,2.4,1.4,3.1.8.6,1.8,1,3.1,1s2.7-.2,3.8-.6l.5,2.1c-1.3.6-2.9.8-4.7.8s-3.9-.6-5.1-1.9c-1.2-1.3-1.9-2.9-1.9-5s.6-3.8,1.7-5.2c1.2-1.5,2.9-2.2,4.9-2.2s3.6.7,4.6,2.2c.8,1.2,1.2,2.6,1.2,4.3ZM177.2,43.2c0-.9-.2-1.7-.6-2.3-.5-.8-1.4-1.3-2.5-1.3s-1.9.4-2.5,1.2c-.5.7-.8,1.4-.9,2.4h6.5Z"/>
  <path class="st3" d="M180.2,43.9c0,.5,0,1-.1,1.4h-9.4c0,1.4.5,2.4,1.4,3.1.8.6,1.8,1,3.1,1s2.7-.2,3.8-.6l.5,2.1c-1.3.6-2.9.8-4.7.8s-3.9-.6-5.1-1.9c-1.2-1.3-1.9-2.9-1.9-5s.6-3.8,1.7-5.2c1.2-1.5,2.9-2.2,4.9-2.2s3.6.7,4.6,2.2c.8,1.2,1.2,2.6,1.2,4.3ZM177.2,43.2c0-.9-.2-1.7-.6-2.3-.5-.8-1.4-1.3-2.5-1.3s-1.9.4-2.5,1.2c-.5.7-.8,1.4-.9,2.4h6.5Z"/>
  <path class="st3" d="M180.2,43.9c0,.5,0,1-.1,1.4h-9.4c0,1.4.5,2.4,1.4,3.1.8.6,1.8,1,3.1,1s2.7-.2,3.8-.6l.5,2.1c-1.3.6-2.9.8-4.7.8s-3.9-.6-5.1-1.9c-1.2-1.3-1.9-2.9-1.9-5s.6-3.8,1.7-5.2c1.2-1.5,2.9-2.2,4.9-2.2s3.6.7,4.6,2.2c.8,1.2,1.2,2.6,1.2,4.3ZM177.2,43.2c0-.9-.2-1.7-.6-2.3-.5-.8-1.4-1.3-2.5-1.3s-1.9.4-2.5,1.2c-.5.7-.8,1.4-.9,2.4h6.5Z"/>
  <path class="st1" d="M72.9,20.7c0,1.7-.5,3-1.6,3.8-1,.8-2.3,1.2-4.1,1.2s-1.6,0-2.2-.1v-9.2c.8-.1,1.7-.2,2.6-.2,1.7,0,2.9.4,3.8,1.1,1,.8,1.4,2,1.4,3.5ZM71.3,20.8c0-1.1-.3-1.9-.9-2.5-.6-.6-1.5-.9-2.6-.9s-.9,0-1.2,0v7c.2,0,.5,0,1,0,1.2,0,2.1-.3,2.7-1,.6-.6,1-1.6,1-2.8Z"/>
  <path class="st0" d="M72.9,20.7c0,1.7-.5,3-1.6,3.8-1,.8-2.3,1.2-4.1,1.2s-1.6,0-2.2-.1v-9.2c.8-.1,1.7-.2,2.6-.2,1.7,0,2.9.4,3.8,1.1,1,.8,1.4,2,1.4,3.5ZM71.3,20.8c0-1.1-.3-1.9-.9-2.5-.6-.6-1.5-.9-2.6-.9s-.9,0-1.2,0v7c.2,0,.5,0,1,0,1.2,0,2.1-.3,2.7-1,.6-.6,1-1.6,1-2.8Z"/>
  <path class="st3" d="M72.9,20.7c0,1.7-.5,3-1.6,3.8-1,.8-2.3,1.2-4.1,1.2s-1.6,0-2.2-.1v-9.2c.8-.1,1.7-.2,2.6-.2,1.7,0,2.9.4,3.8,1.1,1,.8,1.4,2,1.4,3.5ZM71.3,20.8c0-1.1-.3-1.9-.9-2.5-.6-.6-1.5-.9-2.6-.9s-.9,0-1.2,0v7c.2,0,.5,0,1,0,1.2,0,2.1-.3,2.7-1,.6-.6,1-1.6,1-2.8Z"/>
  <path class="st1" d="M81.5,22.2c0,1-.3,1.9-.9,2.6-.6.7-1.5,1-2.5,1s-1.8-.3-2.4-1c-.6-.7-.9-1.5-.9-2.5s.3-1.9.9-2.6c.6-.7,1.5-1,2.5-1s1.8.3,2.4,1c.6.6.9,1.5.9,2.5ZM79.9,22.2c0-.6-.1-1.2-.4-1.6-.3-.5-.8-.8-1.4-.8s-1.1.3-1.4.8c-.3.4-.4,1-.4,1.6s.1,1.2.4,1.6c.3.5.8.8,1.4.8s1-.3,1.4-.8c.3-.5.4-1,.4-1.6Z"/>
  <path class="st0" d="M81.5,22.2c0,1-.3,1.9-.9,2.6-.6.7-1.5,1-2.5,1s-1.8-.3-2.4-1c-.6-.7-.9-1.5-.9-2.5s.3-1.9.9-2.6c.6-.7,1.5-1,2.5-1s1.8.3,2.4,1c.6.6.9,1.5.9,2.5ZM79.9,22.2c0-.6-.1-1.2-.4-1.6-.3-.5-.8-.8-1.4-.8s-1.1.3-1.4.8c-.3.4-.4,1-.4,1.6s.1,1.2.4,1.6c.3.5.8.8,1.4.8s1-.3,1.4-.8c.3-.5.4-1,.4-1.6Z"/>
  <path class="st3" d="M81.5,22.2c0,1-.3,1.9-.9,2.6-.6.7-1.5,1-2.5,1s-1.8-.3-2.4-1c-.6-.7-.9-1.5-.9-2.5s.3-1.9.9-2.6c.6-.7,1.5-1,2.5-1s1.8.3,2.4,1c.6.6.9,1.5.9,2.5ZM79.9,22.2c0-.6-.1-1.2-.4-1.6-.3-.5-.8-.8-1.4-.8s-1.1.3-1.4.8c-.3.4-.4,1-.4,1.6s.1,1.2.4,1.6c.3.5.8.8,1.4.8s1-.3,1.4-.8c.3-.5.4-1,.4-1.6Z"/>
  <path class="st1" d="M93.1,18.9l-2.2,6.7h-1.4l-.9-2.9c-.2-.7-.4-1.5-.6-2.2h0c-.1.7-.3,1.5-.6,2.2l-1,2.9h-1.4l-2-6.7h1.6l.8,3.2c.2.8.3,1.5.5,2.2h0c.1-.6.3-1.3.6-2.1l1-3.2h1.3l.9,3.1c.2.8.4,1.5.6,2.2h0c.1-.7.3-1.4.5-2.2l.8-3.1h1.5Z"/>
  <path class="st0" d="M93.1,18.9l-2.2,6.7h-1.4l-.9-2.9c-.2-.7-.4-1.5-.6-2.2h0c-.1.7-.3,1.5-.6,2.2l-1,2.9h-1.4l-2-6.7h1.6l.8,3.2c.2.8.3,1.5.5,2.2h0c.1-.6.3-1.3.6-2.1l1-3.2h1.3l.9,3.1c.2.8.4,1.5.6,2.2h0c.1-.7.3-1.4.5-2.2l.8-3.1h1.5Z"/>
  <path class="st3" d="M93.1,18.9l-2.2,6.7h-1.4l-.9-2.9c-.2-.7-.4-1.5-.6-2.2h0c-.1.7-.3,1.5-.6,2.2l-1,2.9h-1.4l-2-6.7h1.6l.8,3.2c.2.8.3,1.5.5,2.2h0c.1-.6.3-1.3.6-2.1l1-3.2h1.3l.9,3.1c.2.8.4,1.5.6,2.2h0c.1-.7.3-1.4.5-2.2l.8-3.1h1.5Z"/>
  <path class="st1" d="M101,25.6h-1.5v-3.9c0-1.2-.5-1.8-1.4-1.8s-.8.2-1.1.5c-.3.3-.4.7-.4,1.2v4h-1.5v-4.8c0-.6,0-1.2,0-1.9h1.4v1.1h.1c.2-.3.4-.6.8-.8.4-.3.9-.4,1.4-.4s1.2.2,1.6.6c.5.5.8,1.2.8,2.2v4Z"/>
  <path class="st0" d="M101,25.6h-1.5v-3.9c0-1.2-.5-1.8-1.4-1.8s-.8.2-1.1.5c-.3.3-.4.7-.4,1.2v4h-1.5v-4.8c0-.6,0-1.2,0-1.9h1.4v1.1h.1c.2-.3.4-.6.8-.8.4-.3.9-.4,1.4-.4s1.2.2,1.6.6c.5.5.8,1.2.8,2.2v4Z"/>
  <path class="st3" d="M101,25.6h-1.5v-3.9c0-1.2-.5-1.8-1.4-1.8s-.8.2-1.1.5c-.3.3-.4.7-.4,1.2v4h-1.5v-4.8c0-.6,0-1.2,0-1.9h1.4v1.1h.1c.2-.3.4-.6.8-.8.4-.3.9-.4,1.4-.4s1.2.2,1.6.6c.5.5.8,1.2.8,2.2v4Z"/>
  <path class="st1" d="M105.3,25.6h-1.5v-9.8h1.5v9.8Z"/>
  <path class="st0" d="M105.3,25.6h-1.5v-9.8h1.5v9.8Z"/>
  <path class="st3" d="M105.3,25.6h-1.5v-9.8h1.5v9.8Z"/>
  <path class="st1" d="M114.3,22.2c0,1-.3,1.9-.9,2.6-.6.7-1.5,1-2.5,1s-1.8-.3-2.4-1c-.6-.7-.9-1.5-.9-2.5s.3-1.9.9-2.6c.6-.7,1.5-1,2.5-1s1.8.3,2.4,1c.6.6.9,1.5.9,2.5ZM112.7,22.2c0-.6-.1-1.2-.4-1.6-.3-.5-.8-.8-1.4-.8s-1.1.3-1.4.8c-.3.4-.4,1-.4,1.6s.1,1.2.4,1.6c.3.5.8.8,1.4.8s1-.3,1.4-.8c.3-.5.4-1,.4-1.6Z"/>
  <path class="st0" d="M114.3,22.2c0,1-.3,1.9-.9,2.6-.6.7-1.5,1-2.5,1s-1.8-.3-2.4-1c-.6-.7-.9-1.5-.9-2.5s.3-1.9.9-2.6c.6-.7,1.5-1,2.5-1s1.8.3,2.4,1c.6.6.9,1.5.9,2.5ZM112.7,22.2c0-.6-.1-1.2-.4-1.6-.3-.5-.8-.8-1.4-.8s-1.1.3-1.4.8c-.3.4-.4,1-.4,1.6s.1,1.2.4,1.6c.3.5.8.8,1.4.8s1-.3,1.4-.8c.3-.5.4-1,.4-1.6Z"/>
  <path class="st3" d="M114.3,22.2c0,1-.3,1.9-.9,2.6-.6.7-1.5,1-2.5,1s-1.8-.3-2.4-1c-.6-.7-.9-1.5-.9-2.5s.3-1.9.9-2.6c.6-.7,1.5-1,2.5-1s1.8.3,2.4,1c.6.6.9,1.5.9,2.5ZM112.7,22.2c0-.6-.1-1.2-.4-1.6-.3-.5-.8-.8-1.4-.8s-1.1.3-1.4.8c-.3.4-.4,1-.4,1.6s.1,1.2.4,1.6c.3.5.8.8,1.4.8s1-.3,1.4-.8c.3-.5.4-1,.4-1.6Z"/>
  <path class="st1" d="M121.8,25.6h-1.4v-.8h-.2c-.5.6-1.1.9-2,.9s-1.2-.2-1.6-.6c-.4-.4-.5-.8-.5-1.4,0-.8.4-1.5,1.1-1.9.7-.4,1.7-.6,3-.6h0c0-1-.5-1.5-1.4-1.5s-1.3.2-1.8.5l-.3-1c.6-.4,1.4-.6,2.4-.6,1.8,0,2.7.9,2.7,2.8v2.5c0,.7,0,1.2,0,1.6ZM120.2,23.3v-1c-1.7,0-2.5.4-2.5,1.4s0,.6.3.8c.2.2.5.3.8.3s.7-.1.9-.3c.3-.2.5-.5.5-.8,0,0,0-.2,0-.3Z"/>
  <path class="st0" d="M121.8,25.6h-1.4v-.8h-.2c-.5.6-1.1.9-2,.9s-1.2-.2-1.6-.6c-.4-.4-.5-.8-.5-1.4,0-.8.4-1.5,1.1-1.9.7-.4,1.7-.6,3-.6h0c0-1-.5-1.5-1.4-1.5s-1.3.2-1.8.5l-.3-1c.6-.4,1.4-.6,2.4-.6,1.8,0,2.7.9,2.7,2.8v2.5c0,.7,0,1.2,0,1.6ZM120.2,23.3v-1c-1.7,0-2.5.4-2.5,1.4s0,.6.3.8c.2.2.5.3.8.3s.7-.1.9-.3c.3-.2.5-.5.5-.8,0,0,0-.2,0-.3Z"/>
  <path class="st3" d="M121.8,25.6h-1.4v-.8h-.2c-.5.6-1.1.9-2,.9s-1.2-.2-1.6-.6c-.4-.4-.5-.8-.5-1.4,0-.8.4-1.5,1.1-1.9.7-.4,1.7-.6,3-.6h0c0-1-.5-1.5-1.4-1.5s-1.3.2-1.8.5l-.3-1c.6-.4,1.4-.6,2.4-.6,1.8,0,2.7.9,2.7,2.8v2.5c0,.7,0,1.2,0,1.6ZM120.2,23.3v-1c-1.7,0-2.5.4-2.5,1.4s0,.6.3.8c.2.2.5.3.8.3s.7-.1.9-.3c.3-.2.5-.5.5-.8,0,0,0-.2,0-.3Z"/>
  <path class="st1" d="M130.5,25.6h-1.4v-1.1h-.1c-.4.8-1.2,1.2-2.2,1.2s-1.5-.3-2.1-1c-.6-.6-.8-1.5-.8-2.5s.3-2,.9-2.6c.6-.6,1.3-.9,2.1-.9s1.6.3,1.9.9h0v-3.9h1.5v8c0,.7,0,1.3,0,1.8ZM128.9,22.8v-1.1c0-.2,0-.4,0-.5,0-.4-.3-.7-.6-.9-.3-.2-.6-.4-1-.4-.6,0-1,.2-1.4.7-.3.4-.5,1-.5,1.7s.2,1.2.5,1.6c.3.4.8.7,1.3.7s.9-.2,1.2-.6c.3-.3.4-.8.4-1.2Z"/>
  <path class="st0" d="M130.5,25.6h-1.4v-1.1h-.1c-.4.8-1.2,1.2-2.2,1.2s-1.5-.3-2.1-1c-.6-.6-.8-1.5-.8-2.5s.3-2,.9-2.6c.6-.6,1.3-.9,2.1-.9s1.6.3,1.9.9h0v-3.9h1.5v8c0,.7,0,1.3,0,1.8ZM128.9,22.8v-1.1c0-.2,0-.4,0-.5,0-.4-.3-.7-.6-.9-.3-.2-.6-.4-1-.4-.6,0-1,.2-1.4.7-.3.4-.5,1-.5,1.7s.2,1.2.5,1.6c.3.4.8.7,1.3.7s.9-.2,1.2-.6c.3-.3.4-.8.4-1.2Z"/>
  <path class="st3" d="M130.5,25.6h-1.4v-1.1h-.1c-.4.8-1.2,1.2-2.2,1.2s-1.5-.3-2.1-1c-.6-.6-.8-1.5-.8-2.5s.3-2,.9-2.6c.6-.6,1.3-.9,2.1-.9s1.6.3,1.9.9h0v-3.9h1.5v8c0,.7,0,1.3,0,1.8ZM128.9,22.8v-1.1c0-.2,0-.4,0-.5,0-.4-.3-.7-.6-.9-.3-.2-.6-.4-1-.4-.6,0-1,.2-1.4.7-.3.4-.5,1-.5,1.7s.2,1.2.5,1.6c.3.4.8.7,1.3.7s.9-.2,1.2-.6c.3-.3.4-.8.4-1.2Z"/>
  <path class="st1" d="M143.6,22.2c0,1-.3,1.9-.9,2.6-.6.7-1.5,1-2.5,1s-1.8-.3-2.4-1c-.6-.7-.9-1.5-.9-2.5s.3-1.9.9-2.6c.6-.7,1.5-1,2.5-1s1.8.3,2.4,1c.6.6.9,1.5.9,2.5ZM142,22.2c0-.6-.1-1.2-.4-1.6-.3-.5-.8-.8-1.4-.8s-1.1.3-1.4.8c-.3.4-.4,1-.4,1.6s.1,1.2.4,1.6c.3.5.8.8,1.4.8s1-.3,1.4-.8c.3-.5.4-1,.4-1.6Z"/>
  <path class="st0" d="M143.6,22.2c0,1-.3,1.9-.9,2.6-.6.7-1.5,1-2.5,1s-1.8-.3-2.4-1c-.6-.7-.9-1.5-.9-2.5s.3-1.9.9-2.6c.6-.7,1.5-1,2.5-1s1.8.3,2.4,1c.6.6.9,1.5.9,2.5ZM142,22.2c0-.6-.1-1.2-.4-1.6-.3-.5-.8-.8-1.4-.8s-1.1.3-1.4.8c-.3.4-.4,1-.4,1.6s.1,1.2.4,1.6c.3.5.8.8,1.4.8s1-.3,1.4-.8c.3-.5.4-1,.4-1.6Z"/>
  <path class="st3" d="M143.6,22.2c0,1-.3,1.9-.9,2.6-.6.7-1.5,1-2.5,1s-1.8-.3-2.4-1c-.6-.7-.9-1.5-.9-2.5s.3-1.9.9-2.6c.6-.7,1.5-1,2.5-1s1.8.3,2.4,1c.6.6.9,1.5.9,2.5ZM142,22.2c0-.6-.1-1.2-.4-1.6-.3-.5-.8-.8-1.4-.8s-1.1.3-1.4.8c-.3.4-.4,1-.4,1.6s.1,1.2.4,1.6c.3.5.8.8,1.4.8s1-.3,1.4-.8c.3-.5.4-1,.4-1.6Z"/>
  <path class="st1" d="M151.9,25.6h-1.5v-3.9c0-1.2-.5-1.8-1.4-1.8s-.8.2-1.1.5c-.3.3-.4.7-.4,1.2v4h-1.5v-4.8c0-.6,0-1.2,0-1.9h1.4v1.1h.1c.2-.3.4-.6.8-.8.4-.3.9-.4,1.4-.4s1.2.2,1.6.6c.5.5.8,1.2.8,2.2v4Z"/>
  <path class="st0" d="M151.9,25.6h-1.5v-3.9c0-1.2-.5-1.8-1.4-1.8s-.8.2-1.1.5c-.3.3-.4.7-.4,1.2v4h-1.5v-4.8c0-.6,0-1.2,0-1.9h1.4v1.1h.1c.2-.3.4-.6.8-.8.4-.3.9-.4,1.4-.4s1.2.2,1.6.6c.5.5.8,1.2.8,2.2v4Z"/>
  <path class="st3" d="M151.9,25.6h-1.5v-3.9c0-1.2-.5-1.8-1.4-1.8s-.8.2-1.1.5c-.3.3-.4.7-.4,1.2v4h-1.5v-4.8c0-.6,0-1.2,0-1.9h1.4v1.1h.1c.2-.3.4-.6.8-.8.4-.3.9-.4,1.4-.4s1.2.2,1.6.6c.5.5.8,1.2.8,2.2v4Z"/>
  <path class="st1" d="M162.2,20h-1.7v3.3c0,.8.3,1.2.9,1.2s.5,0,.7,0v1.1c-.3.1-.7.2-1.2.2s-1.1-.2-1.4-.5c-.3-.4-.5-1-.5-1.8v-3.4h-1v-1.1h1v-1.2l1.5-.4v1.7h1.7v1.1h0Z"/>
  <path class="st0" d="M162.2,20h-1.7v3.3c0,.8.3,1.2.9,1.2s.5,0,.7,0v1.1c-.3.1-.7.2-1.2.2s-1.1-.2-1.4-.5c-.3-.4-.5-1-.5-1.8v-3.4h-1v-1.1h1v-1.2l1.5-.4v1.7h1.7v1.1h0Z"/>
  <path class="st3" d="M162.2,20h-1.7v3.3c0,.8.3,1.2.9,1.2s.5,0,.7,0v1.1c-.3.1-.7.2-1.2.2s-1.1-.2-1.4-.5c-.3-.4-.5-1-.5-1.8v-3.4h-1v-1.1h1v-1.2l1.5-.4v1.7h1.7v1.1h0Z"/>
  <path class="st1" d="M170.4,25.6h-1.5v-3.8c0-1.2-.5-1.8-1.4-1.8s-1.2.4-1.5,1.1c0,.1,0,.3,0,.5v4.1h-1.5v-9.8h1.5v4.1h0c.5-.7,1.2-1.1,2.1-1.1s1.2.2,1.6.6c.5.5.8,1.3.8,2.3v4Z"/>
  <path class="st0" d="M170.4,25.6h-1.5v-3.8c0-1.2-.5-1.8-1.4-1.8s-1.2.4-1.5,1.1c0,.1,0,.3,0,.5v4.1h-1.5v-9.8h1.5v4.1h0c.5-.7,1.2-1.1,2.1-1.1s1.2.2,1.6.6c.5.5.8,1.3.8,2.3v4Z"/>
  <path class="st3" d="M170.4,25.6h-1.5v-3.8c0-1.2-.5-1.8-1.4-1.8s-1.2.4-1.5,1.1c0,.1,0,.3,0,.5v4.1h-1.5v-9.8h1.5v4.1h0c.5-.7,1.2-1.1,2.1-1.1s1.2.2,1.6.6c.5.5.8,1.3.8,2.3v4Z"/>
  <path class="st1" d="M178.8,21.9c0,.3,0,.5,0,.7h-4.6c0,.7.2,1.2.7,1.5.4.3.9.5,1.5.5s1.3-.1,1.9-.3l.2,1c-.7.3-1.4.4-2.3.4s-1.9-.3-2.5-.9c-.6-.6-.9-1.4-.9-2.5s.3-1.9.9-2.5c.6-.7,1.4-1.1,2.4-1.1s1.7.4,2.3,1.1c.4.6.6,1.3.6,2.1ZM177.3,21.5c0-.4,0-.8-.3-1.2-.3-.4-.7-.6-1.2-.6s-.9.2-1.2.6c-.3.3-.4.7-.5,1.2h3.2Z"/>
  <path class="st0" d="M178.8,21.9c0,.3,0,.5,0,.7h-4.6c0,.7.2,1.2.7,1.5.4.3.9.5,1.5.5s1.3-.1,1.9-.3l.2,1c-.7.3-1.4.4-2.3.4s-1.9-.3-2.5-.9c-.6-.6-.9-1.4-.9-2.5s.3-1.9.9-2.5c.6-.7,1.4-1.1,2.4-1.1s1.7.4,2.3,1.1c.4.6.6,1.3.6,2.1ZM177.3,21.5c0-.4,0-.8-.3-1.2-.3-.4-.7-.6-1.2-.6s-.9.2-1.2.6c-.3.3-.4.7-.5,1.2h3.2Z"/>
  <path class="st3" d="M178.8,21.9c0,.3,0,.5,0,.7h-4.6c0,.7.2,1.2.7,1.5.4.3.9.5,1.5.5s1.3-.1,1.9-.3l.2,1c-.7.3-1.4.4-2.3.4s-1.9-.3-2.5-.9c-.6-.6-.9-1.4-.9-2.5s.3-1.9.9-2.5c.6-.7,1.4-1.1,2.4-1.1s1.7.4,2.3,1.1c.4.6.6,1.3.6,2.1ZM177.3,21.5c0-.4,0-.8-.3-1.2-.3-.4-.7-.6-1.2-.6s-.9.2-1.2.6c-.3.3-.4.7-.5,1.2h3.2Z"/>
</svg>