<?xml version="1.0" encoding="UTF-8"?>
<svg id="Layer_1" xmlns="http://www.w3.org/2000/svg" xmlns:xlink="http://www.w3.org/1999/xlink" version="1.1" viewBox="0 0 200 70">
  <!-- Generator: Adobe Illustrator 29.5.1, SVG Export Plug-In . SVG Version: 2.1.0 Build 141)  -->
  <defs>
    <style>
      .st0 {
        fill: url(#linear-gradient2);
      }

      .st1 {
        fill: url(#linear-gradient1);
      }

      .st2 {
        fill: url(#linear-gradient3);
      }

      .st3, .st4, .st5 {
        fill: #010101;
      }

      .st6 {
        fill: url(#linear-gradient);
      }

      .st7 {
        fill: #a7a6a6;
      }

      .st8, .st9 {
        fill: #fff;
      }

      .st4 {
        opacity: .2;
      }

      .st4, .st5, .st9 {
        isolation: isolate;
      }

      .st5 {
        opacity: .1;
      }

      .st9 {
        opacity: .2;
      }
    </style>
    <linearGradient id="linear-gradient" x1="-158.1" y1="442.8" x2="-162.2" y2="446.9" gradientTransform="translate(970.4 -2605.2) scale(5.9)" gradientUnits="userSpaceOnUse">
      <stop offset="0" stop-color="#4998d3"/>
      <stop offset="0" stop-color="#4a99d3"/>
      <stop offset=".3" stop-color="#42baeb"/>
      <stop offset=".5" stop-color="#41c7f2"/>
      <stop offset=".8" stop-color="#56c9e9"/>
      <stop offset="1" stop-color="#5bcae8"/>
    </linearGradient>
    <linearGradient id="linear-gradient1" x1="-155.1" y1="445.6" x2="-161.1" y2="445.6" gradientTransform="translate(970.4 -2605.2) scale(5.9)" gradientUnits="userSpaceOnUse">
      <stop offset="0" stop-color="#fee000"/>
      <stop offset=".4" stop-color="#febd11"/>
      <stop offset=".8" stop-color="#faa51a"/>
      <stop offset="1" stop-color="#f99c1c"/>
    </linearGradient>
    <linearGradient id="linear-gradient2" x1="-157.3" y1="446.1" x2="-162.9" y2="451.7" gradientTransform="translate(970.4 -2605.2) scale(5.9)" gradientUnits="userSpaceOnUse">
      <stop offset="0" stop-color="#ef4049"/>
      <stop offset="1" stop-color="#c31e63"/>
    </linearGradient>
    <linearGradient id="linear-gradient3" x1="-161.6" y1="440.7" x2="-159.1" y2="443.2" gradientTransform="translate(970.4 -2605.2) scale(5.9)" gradientUnits="userSpaceOnUse">
      <stop offset="0" stop-color="#32a072"/>
      <stop offset="0" stop-color="#2da771"/>
      <stop offset=".5" stop-color="#4bba71"/>
      <stop offset=".8" stop-color="#5ebd6b"/>
      <stop offset="1" stop-color="#66be69"/>
    </linearGradient>
  </defs>
  <path class="st3" d="M190.7,64H9.3c-4.1,0-7.3-3.2-7.3-7.3V13.2c0-4.1,3.2-7.3,7.3-7.3h181.5c4.1,0,7.3,3.2,7.3,7.3v43.6c0,4.1-3.2,7.3-7.3,7.3Z"/>
  <path class="st7" d="M190.7,7.1c3.3,0,6.1,2.8,6.1,6.1v43.6c0,3.3-2.8,6.1-6.1,6.1H9.3c-3.3,0-6.1-2.8-6.1-6.1V13.2c0-3.3,2.8-6.1,6.1-6.1h181.5M190.7,6H9.3c-4.1,0-7.3,3.3-7.3,7.3v43.6c0,4.1,3.2,7.3,7.3,7.3h181.5c4.1,0,7.3-3.2,7.3-7.3V13.2c0-3.9-3.2-7.3-7.3-7.3Z"/>
  <path class="st8" d="M70.8,20.8c0,1.2-.3,2.2-1,2.9-.9.9-1.9,1.3-3.2,1.3s-2.3-.4-3.2-1.3c-.9-.9-1.3-1.9-1.3-3.2s.4-2.3,1.3-3.2c.9-.9,1.9-1.3,3.2-1.3s1.2.1,1.7.4c.6.3,1,.6,1.3,1l-.7.7c-.6-.7-1.3-1-2.3-1s-1.7.3-2.3,1c-.7.6-1,1.5-1,2.5s.3,1.9,1,2.5,1.5,1,2.3,1,1.7-.3,2.5-1c.4-.4.7-1,.7-1.7h-3.2v-1.2h4.2v.6h0ZM77.5,17.1h-3.9v2.8h3.6v1h-3.6v2.8h3.9v1.2h-5.1v-8.7h5.1v1ZM82.3,24.8h-1.2v-7.7h-2.5v-1h6.1v1h-2.5v7.7ZM89,24.8v-8.7h1.2v8.7h-1.2ZM95.1,24.8h-1.2v-7.7h-2.5v-1h6v1h-2.5v7.7h.1ZM108.9,23.7c-.9.9-1.9,1.3-3.2,1.3s-2.3-.4-3.2-1.3c-.9-.9-1.3-1.9-1.3-3.2s.4-2.3,1.3-3.2c.9-.9,1.9-1.3,3.2-1.3s2.3.4,3.2,1.3c.9.9,1.3,1.9,1.3,3.2s-.4,2.3-1.3,3.2ZM103.3,22.9c.6.6,1.5,1,2.3,1s1.7-.3,2.3-1c.6-.6,1-1.5,1-2.5s-.3-1.9-1-2.5c-.6-.6-1.5-1-2.3-1s-1.7.3-2.3,1c-.6.6-1,1.5-1,2.5s.3,1.9,1,2.5ZM111.8,24.8v-8.7h1.3l4.2,6.8v-6.8h1.2v8.7h-1.2l-4.5-7.1v7.1h-1Z"/>
  <path class="st8" d="M100.9,37.6c-3.5,0-6.2,2.6-6.2,6.2s2.8,6.2,6.2,6.2,6.2-2.6,6.2-6.2-2.8-6.2-6.2-6.2ZM100.9,47.5c-1.9,0-3.5-1.6-3.5-3.8s1.6-3.8,3.5-3.8,3.5,1.5,3.5,3.8-1.6,3.8-3.5,3.8ZM87.4,37.6c-3.5,0-6.2,2.6-6.2,6.2s2.8,6.2,6.2,6.2,6.2-2.6,6.2-6.2-2.8-6.2-6.2-6.2ZM87.4,47.5c-1.9,0-3.5-1.6-3.5-3.8s1.6-3.8,3.5-3.8,3.5,1.5,3.5,3.8-1.6,3.8-3.5,3.8ZM71.3,39.5v2.6h6.2c-.1,1.5-.7,2.6-1.5,3.3-.9.9-2.3,1.9-4.8,1.9-3.9,0-6.8-3-6.8-7s3-7,6.8-7,3.6.9,4.8,1.9l1.9-1.9c-1.6-1.5-3.6-2.6-6.5-2.6-5.2,0-9.7,4.4-9.7,9.6s4.5,9.6,9.7,9.6,4.9-.9,6.7-2.8c1.7-1.7,2.3-4.2,2.3-6.1s0-1.2-.1-1.6h-9ZM137.2,41.5c-.6-1.5-2-3.9-5.2-3.9s-5.8,2.5-5.8,6.2,2.6,6.2,6.1,6.2,4.5-1.7,5.1-2.8l-2-1.5c-.7,1-1.6,1.7-3,1.7s-2.3-.6-3-1.9l8.3-3.5-.3-.7h0ZM128.7,43.6c0-2.3,1.9-3.6,3.2-3.6s2,.6,2.3,1.3l-5.5,2.3h0ZM121.9,49.5h2.8v-18.1h-2.8v18.1ZM117.6,38.9c-.7-.7-1.9-1.5-3.3-1.5-3,0-6,2.8-6,6.2s2.8,6.1,6,6.1,2.6-.7,3.2-1.5h.1v.9c0,2.3-1.3,3.6-3.3,3.6s-2.8-1.2-3-2.2l-2.3,1c.7,1.6,2.5,3.6,5.5,3.6s5.8-1.9,5.8-6.4v-11h-2.6v1h0ZM114.4,47.5c-1.9,0-3.5-1.6-3.5-3.8s1.6-3.8,3.5-3.8,3.3,1.6,3.3,3.8-1.5,3.8-3.3,3.8ZM149.8,31.4h-6.5v18.1h2.8v-6.8h3.8c3,0,6-2.2,6-5.7s-2.9-5.7-6-5.7ZM149.9,40.1h-3.9v-6.2h3.9c2,0,3.2,1.7,3.2,3-.1,1.6-1.3,3.2-3.2,3.2h0ZM166.6,37.5c-2,0-4.1.9-4.8,2.8l2.5,1c.6-1,1.5-1.3,2.5-1.3,1.5,0,2.8.9,2.9,2.3h0c-.4-.1-1.6-.6-2.8-.6-2.6,0-5.2,1.5-5.2,4.1s2.2,4.1,4.5,4.1,2.8-.9,3.5-1.7h.1v1.5h2.6v-7c-.3-3.2-2.8-5.1-5.8-5.1h0ZM166.3,47.5c-.9,0-2.2-.4-2.2-1.6s1.6-1.9,2.9-1.9,1.7.3,2.5.6c-.3,1.7-1.7,2.9-3.2,2.9ZM181.6,37.9l-3,7.8h-.1l-3.2-7.8h-2.9l4.8,11-2.8,6.1h2.8l7.4-17.1h-2.9ZM157.2,49.5h2.8v-18.1h-2.8v18.1Z"/>
  <g>
    <path class="st6" d="M17.1,16.9c-.4.4-.6,1.2-.6,2v32.1c0,.9.3,1.6.7,2h.1c0,.1,18-17.9,18-17.9v-.3l-18.3-18Z"/>
    <path class="st1" d="M41.2,41.2l-6-6v-.4l6-6h.1c0,.1,7.1,4.2,7.1,4.2,2,1.2,2,3,0,4.2l-7.3,3.9Z"/>
    <path class="st0" d="M41.3,41.1l-6.1-6.1-18.1,18.1c.7.7,1.7.7,3,.1l21.2-12.2"/>
    <path class="st2" d="M41.3,28.9l-21.2-12.1c-1.3-.7-2.3-.6-3,.1l18.1,18,6.1-6.1h0Z"/>
    <path class="st4" d="M41.2,41l-21.1,11.9c-1.2.7-2.2.6-2.9,0h-.1c0,.1.1.3.1.3.7.6,1.7.7,2.9,0l21.1-12.2Z"/>
    <path class="st5" d="M17.1,52.9c-.4-.4-.6-1.2-.6-2h0c0,1,.3,1.7.7,2.2h0c0-.1-.1-.1-.1-.1h0ZM48.5,36.9l-7.3,4.1h.1c0,.1,7.1-3.9,7.1-3.9,1-.6,1.5-1.3,1.5-2,0,.7-.6,1.3-1.5,1.9Z"/>
    <path class="st9" d="M20.1,17l28.3,16.1c.9.6,1.5,1.2,1.5,1.9,0-.7-.4-1.5-1.5-2l-28.3-16.1c-2-1.2-3.6-.3-3.6,2h0c0-2,1.6-3,3.6-1.9Z"/>
  </g>
</svg>